<?xml version="1.0" encoding="utf-8"?>
<!-- Generator: Adobe Illustrator 17.1.0, SVG Export Plug-In . SVG Version: 6.00 Build 0)  -->
<!DOCTYPE svg PUBLIC "-//W3C//DTD SVG 1.1//EN" "http://www.w3.org/Graphics/SVG/1.1/DTD/svg11.dtd">
<svg version="1.1" id="Layer_1" xmlns="http://www.w3.org/2000/svg" xmlns:xlink="http://www.w3.org/1999/xlink" x="0px" y="0px"
	 viewBox="0 0 1180 1180" enable-background="new 0 0 1180 1180" xml:space="preserve">
<g>
	<g>
		<rect x="590" y="481.4" width="19.9" height="19.9"/>
		<rect x="618.4" y="481.4" width="19.9" height="19.9"/>
		<rect x="590" y="508.7" width="19.9" height="19.9"/>
		<rect x="618.4" y="508.7" width="19.9" height="19.9"/>
	</g>
	<polygon points="815.9,503.2 762.8,464.7 619.3,361.1 259.8,566.3 615.7,428.1 754.4,499.8 809.4,528.3 904.9,577.7 920.2,578.5 	
		"/>
	<g>
		<path d="M468.5,707.7c-10.3,8.1-23.3,12.3-39.2,12.3H364v-68h-59v0.3v57.6V767h124.2c29.4,0,54.1-7.2,74.3-22.1l-19.7-67.4
			C483.3,689.8,478.2,699.9,468.5,707.7z"/>
		<path d="M754.4,499.8l-42.7,178.7h0l0,0l-0.2-0.3l-14-22.6l-37.5-60.5c-3.1-4.8-7.5-8.7-13.2-11.8c-5.7-3.1-11.7-4.6-18.1-4.6
			c-12,0-21.4,5.5-28.2,16.4l-20.9,33.7l-4.9,8l-3.8,6.2l-22.1,35.5l-2.6-10.4c-0.4-13-3.4-24.7-8.8-35.2
			c-5.2-10.1-12.6-19.1-22.4-26.9c-14.3-11.5-31.5-18.9-51.4-22.5c-0.4-0.1-0.9-0.2-1.3-0.3c-8.7-1.5-17.8-2.1-27.5-2.1h-29.2h-58.2
			h-21.7H307v46h3.8h94.6h29.2c15.7,0,28.7,5,39.1,13.5c3.1,2.5,5.6,5.6,7.8,8.5c5.1,7,7.7,15.3,7.7,24.6c0,0.6,0,1.3,0,2l19.7,67.6
			l0.5,1.7c1.9,6.5,5.9,12.1,11.9,16.7c6.1,4.6,13,6.9,20.9,6.9c12.1,0,22.6-7.2,31.3-21.5l56.6-92l56.4,92
			c8.9,14.4,19.4,21.5,31.5,21.5c7.9,0,15-2.4,21.3-7.2c5.8-4.4,9.7-10,11.5-16.5l19.3-66.2h0l0.1-0.4l1.4-4.6l2.8-11.4l34.9-133.8
			L754.4,499.8z"/>
		<polygon points="782.8,388 765.8,459.1 820.1,498.3 849,388 		"/>
	</g>
	<g>
		<path d="M335.9,802.6c0,2.3-0.4,4.5-1.2,6.4c-0.8,2-1.9,3.6-3.3,5.1c-1.4,1.4-3.2,2.5-5.2,3.3c-2,0.8-4.2,1.2-6.7,1.2h-12.3v-32
			h12.3c2.5,0,4.7,0.4,6.7,1.2c2,0.8,3.7,1.9,5.2,3.3c1.4,1.4,2.5,3.1,3.3,5.1C335.5,798.1,335.9,800.2,335.9,802.6z M329.1,802.6
			c0-1.7-0.2-3.2-0.7-4.5c-0.4-1.3-1.1-2.5-1.9-3.4c-0.8-0.9-1.8-1.6-3-2.1c-1.2-0.5-2.5-0.7-4-0.7h-5.6v21.6h5.6
			c1.5,0,2.8-0.2,4-0.7c1.2-0.5,2.2-1.2,3-2.1c0.8-0.9,1.5-2.1,1.9-3.4C328.9,805.8,329.1,804.3,329.1,802.6z"/>
		<path d="M391.9,786.6l-9.9,32h-6l-6.5-20.9c-0.1-0.3-0.2-0.6-0.3-1c-0.1-0.4-0.2-0.7-0.3-1.1c-0.1,0.4-0.2,0.8-0.3,1.1
			c-0.1,0.4-0.2,0.7-0.3,1l-6.6,20.9h-6l-9.9-32h5.6c0.6,0,1.1,0.1,1.4,0.4c0.4,0.3,0.6,0.6,0.8,1.1l5,18c0.1,0.5,0.2,1,0.4,1.6
			c0.1,0.6,0.2,1.2,0.4,1.8c0.1-0.7,0.3-1.3,0.4-1.9c0.1-0.6,0.3-1.1,0.5-1.6l5.8-18c0.1-0.4,0.4-0.7,0.8-1c0.4-0.3,0.9-0.5,1.4-0.5
			h1.9c0.6,0,1,0.1,1.4,0.4c0.4,0.3,0.6,0.6,0.8,1l5.8,18c0.2,0.5,0.3,1,0.5,1.5c0.1,0.6,0.3,1.1,0.4,1.8c0.1-0.6,0.2-1.2,0.3-1.8
			c0.1-0.6,0.2-1.1,0.3-1.5l5-18c0.1-0.4,0.4-0.7,0.7-1c0.4-0.3,0.9-0.4,1.4-0.4H391.9z"/>
		<path d="M410.9,791.8v8.2h10.7v5h-10.7v8.4h13.7v5.2h-20.4v-32h20.4v5.2H410.9z"/>
		<path d="M457.4,813.2v5.4h-19v-32h6.6v26.6H457.4z"/>
		<path d="M489.2,813.2v5.4h-19v-32h6.6v26.6H489.2z"/>
		<path d="M508.8,818.6h-6.7v-32h6.7V818.6z"/>
		<path d="M551.7,786.6v32h-3.4c-0.5,0-0.9-0.1-1.3-0.3c-0.4-0.2-0.7-0.5-1-0.9L530,797.2c0,0.5,0.1,1,0.1,1.5c0,0.5,0,1,0,1.4v18.5
			h-5.8v-32h3.5c0.3,0,0.5,0,0.7,0c0.2,0,0.4,0.1,0.5,0.2c0.2,0.1,0.3,0.2,0.5,0.3c0.1,0.1,0.3,0.3,0.5,0.5L546,808
			c-0.1-0.6-0.1-1.1-0.1-1.6c0-0.5,0-1,0-1.5v-18.3H551.7z"/>
		<path d="M582.8,802.3h11v13.2c-1.6,1.2-3.4,2.1-5.2,2.6c-1.8,0.6-3.8,0.8-5.9,0.8c-2.6,0-5-0.4-7.1-1.2c-2.1-0.8-4-2-5.5-3.4
			c-1.5-1.5-2.7-3.2-3.5-5.2c-0.8-2-1.2-4.2-1.2-6.5c0-2.4,0.4-4.6,1.2-6.6c0.8-2,1.9-3.7,3.4-5.2c1.5-1.4,3.2-2.6,5.3-3.4
			c2.1-0.8,4.4-1.2,6.9-1.2c1.3,0,2.6,0.1,3.7,0.3s2.2,0.5,3.2,0.9c1,0.4,1.9,0.8,2.7,1.3c0.8,0.5,1.5,1.1,2.2,1.7l-1.9,3
			c-0.3,0.5-0.7,0.8-1.1,0.9c-0.5,0.1-1,0-1.5-0.4c-0.5-0.3-1-0.6-1.6-0.9c-0.5-0.3-1-0.5-1.6-0.7c-0.6-0.2-1.2-0.3-1.9-0.4
			c-0.7-0.1-1.5-0.2-2.3-0.2c-1.5,0-2.8,0.3-4,0.8c-1.2,0.5-2.2,1.2-3.1,2.2s-1.5,2.1-2,3.4c-0.5,1.3-0.7,2.8-0.7,4.4
			c0,1.8,0.3,3.3,0.8,4.7s1.2,2.6,2.1,3.5c0.9,1,2,1.7,3.3,2.2c1.3,0.5,2.7,0.7,4.2,0.7c1.1,0,2-0.1,2.8-0.3
			c0.8-0.2,1.6-0.5,2.4-0.9v-5.4h-3.6c-0.4,0-0.8-0.1-1-0.3c-0.2-0.2-0.4-0.5-0.4-0.9V802.3z"/>
		<path d="M625.3,792.7c-0.2,0.3-0.4,0.6-0.6,0.7c-0.2,0.2-0.5,0.2-0.8,0.2c-0.3,0-0.7-0.1-1-0.3c-0.4-0.2-0.8-0.5-1.3-0.7
			c-0.5-0.3-1.1-0.5-1.7-0.7c-0.6-0.2-1.4-0.3-2.3-0.3c-1.5,0-2.7,0.3-3.4,1s-1.1,1.6-1.1,2.7c0,0.7,0.2,1.3,0.6,1.8
			c0.4,0.5,1,0.9,1.7,1.2c0.7,0.3,1.5,0.6,2.3,0.9c0.9,0.3,1.8,0.6,2.7,0.9c0.9,0.3,1.8,0.7,2.7,1.1c0.9,0.4,1.6,1,2.3,1.6
			c0.7,0.6,1.2,1.4,1.7,2.4c0.4,0.9,0.6,2.1,0.6,3.4c0,1.5-0.3,2.8-0.8,4.1c-0.5,1.3-1.2,2.4-2.2,3.3c-1,0.9-2.1,1.7-3.5,2.2
			c-1.4,0.5-3,0.8-4.8,0.8c-1,0-2-0.1-3-0.3c-1-0.2-2-0.5-2.9-0.9s-1.8-0.8-2.6-1.3c-0.8-0.5-1.5-1.1-2.2-1.7l1.9-3.1
			c0.2-0.2,0.4-0.4,0.6-0.6c0.3-0.2,0.5-0.2,0.8-0.2c0.4,0,0.8,0.1,1.3,0.4c0.4,0.3,0.9,0.6,1.5,1c0.6,0.4,1.2,0.7,2,1
			s1.7,0.4,2.7,0.4c1.5,0,2.7-0.4,3.6-1.1c0.8-0.7,1.3-1.8,1.3-3.2c0-0.8-0.2-1.5-0.6-2c-0.4-0.5-1-0.9-1.6-1.3
			c-0.7-0.3-1.4-0.6-2.3-0.9c-0.9-0.2-1.8-0.5-2.7-0.8c-0.9-0.3-1.8-0.6-2.7-1.1c-0.9-0.4-1.6-1-2.3-1.6s-1.2-1.5-1.6-2.5
			c-0.4-1-0.6-2.2-0.6-3.7c0-1.2,0.2-2.3,0.7-3.5c0.5-1.1,1.2-2.1,2.1-3c0.9-0.9,2-1.6,3.4-2.1c1.3-0.5,2.9-0.8,4.6-0.8
			c1.9,0,3.7,0.3,5.3,0.9c1.6,0.6,3,1.4,4.2,2.5L625.3,792.7z"/>
		<path d="M679.4,813.2v5.4h-19v-32h6.6v26.6H679.4z"/>
		<path d="M711.2,813.2v5.4h-19v-32h6.6v26.6H711.2z"/>
		<path d="M744.9,810.7c0.4,0,0.7,0.1,0.9,0.4l2.6,2.8c-1.3,1.6-2.9,2.9-4.8,3.7c-1.9,0.9-4.2,1.3-6.8,1.3c-2.4,0-4.5-0.4-6.5-1.2
			c-1.9-0.8-3.5-2-4.9-3.4c-1.3-1.5-2.4-3.2-3.1-5.2c-0.7-2-1.1-4.2-1.1-6.5c0-1.6,0.2-3.1,0.5-4.5c0.3-1.4,0.8-2.8,1.5-4
			c0.7-1.2,1.5-2.3,2.4-3.3c0.9-1,2-1.8,3.2-2.5s2.5-1.2,3.8-1.6c1.4-0.4,2.9-0.5,4.4-0.5c1.2,0,2.3,0.1,3.3,0.3
			c1.1,0.2,2,0.5,2.9,0.9c0.9,0.4,1.8,0.8,2.5,1.3c0.8,0.5,1.5,1.1,2.1,1.7l-2.2,3c-0.1,0.2-0.3,0.4-0.5,0.5
			c-0.2,0.1-0.5,0.2-0.8,0.2c-0.4,0-0.7-0.1-1.1-0.4c-0.4-0.2-0.8-0.5-1.3-0.8s-1.2-0.6-2-0.8c-0.8-0.2-1.8-0.4-3-0.4
			c-1.3,0-2.6,0.2-3.7,0.7c-1.1,0.5-2.1,1.2-2.9,2.1c-0.8,0.9-1.4,2-1.9,3.4c-0.4,1.3-0.7,2.9-0.7,4.6c0,1.7,0.2,3.3,0.7,4.6
			c0.5,1.3,1.1,2.5,2,3.4c0.8,0.9,1.8,1.6,2.9,2.1c1.1,0.5,2.3,0.7,3.6,0.7c0.7,0,1.4,0,2-0.1c0.6-0.1,1.2-0.2,1.7-0.4
			s1-0.4,1.5-0.7c0.5-0.3,0.9-0.6,1.4-1.1c0.2-0.1,0.3-0.2,0.5-0.3C744.5,810.7,744.7,810.7,744.9,810.7z"/>
	</g>
</g>
</svg>
